{
	"asset":{
		"version":"2.0",
		"generator":"Maxon Cinema 4D 2024.2.0 (#200000219)"
	},
	"scenes":[{
		"nodes":[0]
	}],
	"nodes":[{
		"name":"ヌル.1",
		"translation":[0.0,
		0.0,
		0.0],
		"rotation":[0.9366123080253601,
		0.13790662586688996,
		-0.16828393936157227,
		-0.2746262848377228],
		"scale":[1.0,
		1.0,
		1.0],
		"children":[1]
	},
	{
		"name":"ヌル",
		"translation":[4.439712543083029e-19,
		0.3665189743041992,
		1.0797275389618989e-17],
		"rotation":[0.0,
		0.0,
		0.0,
		-1.0],
		"scale":[1.0,
		1.0,
		1.0],
		"children":[2]
	},
	{
		"name":"Sketchfab_Scene.1",
		"translation":[-0.0026621620636433365,
		0.026574766263365747,
		0.0],
		"rotation":[0.0,
		0.0,
		0.3826834261417389,
		-0.9238795042037964],
		"scale":[1.0,
		1.0,
		1.0],
		"children":[3]
	},
	{
		"name":"Sketchfab_model",
		"translation":[-1.794372065518047e-16,
		1.3542344562728278e-17,
		0.0],
		"rotation":[0.7071067690849304,
		0.0,
		0.0,
		-0.7071067690849304],
		"scale":[1.0,
		1.0,
		1.0],
		"children":[4]
	},
	{
		"name":"53373a3e457e40529cf532d18cb7d75a.fbx",
		"translation":[6.925274540557665e-17,
		7.524289381103553e-33,
		8.45966215136352e-17],
		"rotation":[-0.7071067690849304,
		0.0,
		0.0,
		-0.7071067690849304],
		"scale":[1.0,
		1.0,
		1.0],
		"children":[5]
	},
	{
		"name":"RootNode",
		"children":[6]
	},
	{
		"name":"pSphere4",
		"translation":[0.002569106174632907,
		0.0010641594417393208,
		0.0],
		"rotation":[0.0,
		0.0,
		0.3826834261417389,
		0.9238795042037964],
		"scale":[1.0,
		1.0,
		1.0],
		"children":[7,
		8]
	},
	{
		"name":"polySurface1",
		"children":[9]
	},
	{
		"name":"polySurface2",
		"children":[10]
	},
	{
		"name":"polySurface1_lambert3_0",
		"mesh":0
	},
	{
		"name":"polySurface2_lambert2_0",
		"mesh":1
	}],
	"meshes":[{
		"name":"polySurface1_lambert3_0",
		"primitives":[{
			"attributes":{
				"POSITION":1,
				"NORMAL":2,
				"TEXCOORD_0":3
			},
			"indices":0,
			"material":0
		}]
	},
	{
		"name":"polySurface2_lambert2_0",
		"primitives":[{
			"attributes":{
				"POSITION":5,
				"NORMAL":6,
				"TEXCOORD_0":7
			},
			"indices":4,
			"material":1
		}]
	}],
	"accessors":[{
		"bufferView":0,
		"type":"SCALAR",
		"componentType":5123,
		"count":774,
		"byteOffset":0,
		"min":[0],
		"max":[773]
	},
	{
		"bufferView":1,
		"type":"VEC3",
		"componentType":5126,
		"count":774,
		"byteOffset":0,
		"min":[-0.0018824333092197776,
		-0.05720404535531998,
		-0.001882433774881065],
		"max":[0.001882433076389134,
		0.00013992244203109294,
		0.0018824331928044558]
	},
	{
		"bufferView":1,
		"type":"VEC3",
		"componentType":5126,
		"count":774,
		"byteOffset":12,
		"min":[-1.0,
		-0.17529211938381196,
		-1.0],
		"max":[1.0,
		0.0,
		1.0]
	},
	{
		"bufferView":1,
		"type":"VEC2",
		"componentType":5126,
		"count":774,
		"byteOffset":24,
		"min":[0.34374237060546877,
		-0.00003814697265625],
		"max":[0.65625,
		0.6884307861328125]
	},
	{
		"bufferView":2,
		"type":"SCALAR",
		"componentType":5123,
		"count":4008,
		"byteOffset":0,
		"min":[0],
		"max":[4007]
	},
	{
		"bufferView":3,
		"type":"VEC3",
		"componentType":5126,
		"count":4008,
		"byteOffset":0,
		"min":[-0.02268626168370247,
		-4.2075659623108665e-10,
		-0.022686270996928216],
		"max":[0.02268626168370247,
		0.064470574259758,
		0.022686263546347619]
	},
	{
		"bufferView":3,
		"type":"VEC3",
		"componentType":5126,
		"count":4008,
		"byteOffset":12,
		"min":[-0.9987334609031677,
		-1.0,
		-0.9987334609031677],
		"max":[0.9987334609031677,
		1.0,
		0.9987334609031677]
	},
	{
		"bufferView":3,
		"type":"VEC2",
		"componentType":5126,
		"count":4008,
		"byteOffset":24,
		"min":[0.000030517578125,
		-0.00003814697265625],
		"max":[1.0,
		1.0]
	}],
	"bufferViews":[{
		"buffer":0,
		"byteOffset":0,
		"byteLength":1548,
		"target":34963
	},
	{
		"buffer":0,
		"byteOffset":1548,
		"byteLength":24768,
		"target":34962,
		"byteStride":32
	},
	{
		"buffer":1,
		"byteOffset":0,
		"byteLength":8016,
		"target":34963
	},
	{
		"buffer":1,
		"byteOffset":8016,
		"byteLength":128256,
		"target":34962,
		"byteStride":32
	}],
	"buffers":[{
		"uri":"data:application/octet-stream;base64,",
		"byteLength":26316
	},
	{
		"uri":"data:application/octet-stream;base64,",
		"byteLength":136272
	}],
	"materials":[{
		"pbrMetallicRoughness":{
			"baseColorFactor":[0.231,
			0.231,
			0.231,
			1.0],
			"metallicFactor":0.0,
			"roughnessFactor":0.6
		},
		"emissiveFactor":[0.0,
		0.0,
		0.0],
		"alphaMode":"OPAQUE",
		"doubleSided":true,
		"name":"lambert3"
	},
	{
		"pbrMetallicRoughness":{
			"baseColorFactor":[0.0387599,
			0.0242,
			0.44,
			1.0],
			"metallicFactor":0.0,
			"roughnessFactor":0.6
		},
		"emissiveFactor":[0.0,
		0.0,
		0.0],
		"alphaMode":"OPAQUE",
		"doubleSided":true,
		"name":"lambert2"
	}]
}